# xmcd
# 
# Track frame offsets:
#     150
#     20890
#     59975
#     79640
#     120180
#     122620
#     148755
#     178505
#     181532
#     203632
#     211950
#     219184
# 
# Disc length: 3272
# 
# Revision: 1
# Processed by: cddbd v1.5.2PL0 Copyright (c) Steve Scherf et al.
# Submitted via: BonkEnc v1.0.8
# 
DISCID=a50cc60c
DTITLE=Tony Reedus - People Get Ready
DYEAR=1998
DGENRE=Fusion
TTITLE0=Inner City Blues
TTITLE1=Transitions
TTITLE2=Peple Get Ready
TTITLE3=Lady Greneva
TTITLE4=E.J.2000
TTITLE5=Eleanor Rigby
TTITLE6=A Change Is Gonna Come
TTITLE7=Jack D
TTITLE8=Bird Of Beaty
TTITLE9=Motherland
TTITLE10=Tillman
TTITLE11=The Party's Over
EXTD=YEAR: 1998
EXTT0=
EXTT1=
EXTT2=
EXTT3=
EXTT4=
EXTT5=
EXTT6=
EXTT7=
EXTT8=
EXTT9=
EXTT10=
EXTT11=
PLAYORDER=
